<?xml version="1.0" encoding="utf-8"?>

<!-- Uploaded to: SVG Repo, www.svgrepo.com, Generator: SVG Repo Mixer Tools -->
<svg fill="#000000" height="800px" width="800px" version="1.1" id="Icons" xmlns="http://www.w3.org/2000/svg" xmlns:xlink="http://www.w3.org/1999/xlink" 
	 viewBox="0 0 32 32" xml:space="preserve">
<g>
	<path d="M16,2c-1.7,0-3,1.3-3,3s1.3,3,3,3s3-1.3,3-3S17.7,2,16,2z"/>
	<path d="M10.3,6.1C9.2,5,7.2,5,6.1,6.1c-1.2,1.2-1.2,3.1,0,4.2c0.6,0.6,1.3,0.9,2.1,0.9c0.8,0,1.6-0.3,2.1-0.9
		C11.5,9.2,11.5,7.3,10.3,6.1C10.3,6.1,10.3,6.1,10.3,6.1z"/>
	<path d="M8,16c0-1.7-1.3-3-3-3s-3,1.3-3,3s1.3,3,3,3S8,17.7,8,16z"/>
	<path d="M6.1,21.7C6.1,21.7,6.1,21.7,6.1,21.7c-1.2,1.2-1.2,3.1,0,4.2c0.6,0.6,1.3,0.9,2.1,0.9c0.8,0,1.6-0.3,2.1-0.9
		c1.2-1.2,1.2-3.1,0-4.2C9.2,20.5,7.2,20.5,6.1,21.7z"/>
	<path d="M16,24c-1.7,0-3,1.3-3,3s1.3,3,3,3s3-1.3,3-3S17.7,24,16,24z"/>
	<path d="M21.7,21.7c-1.2,1.2-1.2,3.1,0,4.2c0,0,0,0,0,0c0.6,0.6,1.3,0.9,2.1,0.9c0.8,0,1.6-0.3,2.1-0.9c1.2-1.2,1.2-3.1,0-4.2
		C24.8,20.5,22.8,20.5,21.7,21.7z"/>
	<path d="M27,13c-1.7,0-3,1.3-3,3s1.3,3,3,3s3-1.3,3-3S28.7,13,27,13z"/>
	<path d="M23.8,11.2c0.8,0,1.6-0.3,2.1-0.9c0,0,0,0,0,0c1.2-1.2,1.2-3.1,0-4.2c-1.1-1.1-3.1-1.1-4.2,0c-1.2,1.2-1.2,3.1,0,4.2
		C22.2,10.9,23,11.2,23.8,11.2z"/>
</g>
</svg>